{
    "accessors" : [
        {
            "bufferView" : 0,
            "componentType" : 5123,
            "count" : 546,
            "max" : [
                117
            ],
            "min" : [
                0
            ],
            "type" : "SCALAR"
        },
        {
            "bufferView" : 1,
            "componentType" : 5126,
            "count" : 118,
            "max" : [
                0.1570190042257309,
                -0.649163007736206,
                -0.6822829842567444
            ],
            "min" : [
                -0.1570190042257309,
                -1.0666760206222534,
                -1.1669189929962158
            ],
            "type" : "VEC3"
        },
        {
            "bufferView" : 2,
            "componentType" : 5126,
            "count" : 118,
            "max" : [
                0.999786376953125,
                0.0197149571031332,
                0.99969482421875
            ],
            "min" : [
                -0.999786376953125,
                -0.938993513584137,
                -0.999542236328125
            ],
            "type" : "VEC3"
        },
        {
            "bufferView" : 3,
            "componentType" : 5126,
            "count" : 118,
            "max" : [
                1.0,
                0.9998142123222351,
                0.037702422589063644,
                1.0
            ],
            "min" : [
                -0.022449232637882233,
                -0.9998142123222351,
                -0.03769072890281677,
                1.0
            ],
            "type" : "VEC4"
        },
        {
            "bufferView" : 4,
            "componentType" : 5126,
            "count" : 118,
            "max" : [
                0.9285719990730286,
                1.0
            ],
            "min" : [
                0.4285709857940674,
                0.0
            ],
            "type" : "VEC2"
        }
    ],
    "asset" : {
        "generator" : "Khronos Blender glTF 2.0 exporter",
        "version" : "2.0"
    },
    "bufferViews" : [
        {
            "buffer" : 0,
            "byteLength" : 1092,
            "byteOffset" : 0,
            "target" : 34963
        },
        {
            "buffer" : 0,
            "byteLength" : 1416,
            "byteOffset" : 1092,
            "target" : 34962
        },
        {
            "buffer" : 0,
            "byteLength" : 1416,
            "byteOffset" : 2508,
            "target" : 34962
        },
        {
            "buffer" : 0,
            "byteLength" : 1888,
            "byteOffset" : 3924,
            "target" : 34962
        },
        {
            "buffer" : 0,
            "byteLength" : 944,
            "byteOffset" : 5812,
            "target" : 34962
        }
    ],
    "buffers" : [
        {
            "byteLength" : 6756,
            "uri" : "manul-mouth-tongue.bin"
        }
    ],
    "meshes" : [
        {
            "name" : "grp_cat cat_l_arm.001",
            "primitives" : [
                {
                    "attributes" : {
                        "NORMAL" : 2,
                        "POSITION" : 1,
                        "TANGENT" : 3,
                        "TEXCOORD_0" : 4
                    },
                    "indices" : 0
                }
            ]
        }
    ],
    "nodes" : [
        {
            "mesh" : 0,
            "name" : "grp_cat cat_l_arm.018",
            "rotation" : [
                0.38350823521614075,
                0.0005345710087567568,
                0.27352073788642883,
                0.8821040391921997
            ],
            "scale" : [
                0.4374517798423767,
                0.43745172023773193,
                0.4374517500400543
            ],
            "translation" : [
                0.9468339085578918,
                1.6220474243164062,
                0.4543124735355377
            ]
        }
    ],
    "scene" : 0,
    "scenes" : [
        {
            "name" : "Scene",
            "nodes" : [
                0
            ]
        }
    ]
}
