{
    "accessors" : [
        {
            "bufferView" : 0,
            "componentType" : 5123,
            "count" : 720,
            "max" : [
                215
            ],
            "min" : [
                0
            ],
            "type" : "SCALAR"
        },
        {
            "bufferView" : 1,
            "componentType" : 5126,
            "count" : 216,
            "max" : [
                0.38856300711631775,
                1.0638129711151123,
                -2.0518128871917725
            ],
            "min" : [
                -0.19130200147628784,
                0.4424560070037842,
                -2.6377639770507812
            ],
            "type" : "VEC3"
        },
        {
            "bufferView" : 2,
            "componentType" : 5126,
            "count" : 216,
            "max" : [
                0.9944456219673157,
                0.9927670955657959,
                0.9935606122016907
            ],
            "min" : [
                -0.965483546257019,
                -0.9899899363517761,
                -0.9941099286079407
            ],
            "type" : "VEC3"
        },
        {
            "bufferView" : 3,
            "componentType" : 5126,
            "count" : 216,
            "max" : [
                1.0,
                0.9557841420173645,
                0.9705984592437744,
                1.0
            ],
            "min" : [
                -0.9856318831443787,
                -0.8367661833763123,
                -0.8267229199409485,
                -1.0
            ],
            "type" : "VEC4"
        },
        {
            "bufferView" : 4,
            "componentType" : 5126,
            "count" : 216,
            "max" : [
                0.642857015132904,
                0.5
            ],
            "min" : [
                0.21428599953651428,
                0.0
            ],
            "type" : "VEC2"
        },
        {
            "bufferView" : 5,
            "componentType" : 5123,
            "count" : 720,
            "max" : [
                215
            ],
            "min" : [
                0
            ],
            "type" : "SCALAR"
        },
        {
            "bufferView" : 6,
            "componentType" : 5126,
            "count" : 216,
            "max" : [
                0.40629199147224426,
                -0.48575499653816223,
                -2.0042080879211426
            ],
            "min" : [
                -0.20880700647830963,
                -1.1024290323257446,
                -2.6129510402679443
            ],
            "type" : "VEC3"
        },
        {
            "bufferView" : 7,
            "componentType" : 5126,
            "count" : 216,
            "max" : [
                0.9766838550567627,
                0.9954832792282104,
                0.9942930340766907
            ],
            "min" : [
                -0.9757683277130127,
                -0.9964293241500854,
                -0.9953917264938354
            ],
            "type" : "VEC3"
        },
        {
            "bufferView" : 8,
            "componentType" : 5126,
            "count" : 216,
            "max" : [
                1.0,
                0.9756935834884644,
                0.8140683770179749,
                1.0
            ],
            "min" : [
                -0.9285875558853149,
                -0.7880494594573975,
                -0.9712243676185608,
                -1.0
            ],
            "type" : "VEC4"
        },
        {
            "bufferView" : 9,
            "componentType" : 5126,
            "count" : 216,
            "max" : [
                0.642857015132904,
                0.5
            ],
            "min" : [
                0.21428599953651428,
                0.0
            ],
            "type" : "VEC2"
        }
    ],
    "asset" : {
        "generator" : "Khronos Blender glTF 2.0 exporter",
        "version" : "2.0"
    },
    "bufferViews" : [
        {
            "buffer" : 0,
            "byteLength" : 1440,
            "byteOffset" : 0,
            "target" : 34963
        },
        {
            "buffer" : 0,
            "byteLength" : 2592,
            "byteOffset" : 1440,
            "target" : 34962
        },
        {
            "buffer" : 0,
            "byteLength" : 2592,
            "byteOffset" : 4032,
            "target" : 34962
        },
        {
            "buffer" : 0,
            "byteLength" : 3456,
            "byteOffset" : 6624,
            "target" : 34962
        },
        {
            "buffer" : 0,
            "byteLength" : 1728,
            "byteOffset" : 10080,
            "target" : 34962
        },
        {
            "buffer" : 0,
            "byteLength" : 1440,
            "byteOffset" : 11808,
            "target" : 34963
        },
        {
            "buffer" : 0,
            "byteLength" : 2592,
            "byteOffset" : 13248,
            "target" : 34962
        },
        {
            "buffer" : 0,
            "byteLength" : 2592,
            "byteOffset" : 15840,
            "target" : 34962
        },
        {
            "buffer" : 0,
            "byteLength" : 3456,
            "byteOffset" : 18432,
            "target" : 34962
        },
        {
            "buffer" : 0,
            "byteLength" : 1728,
            "byteOffset" : 21888,
            "target" : 34962
        }
    ],
    "buffers" : [
        {
            "byteLength" : 23616,
            "uri" : "manul-ears-standard.bin"
        }
    ],
    "meshes" : [
        {
            "name" : "grp_cat cat_r_ear",
            "primitives" : [
                {
                    "attributes" : {
                        "NORMAL" : 2,
                        "POSITION" : 1,
                        "TANGENT" : 3,
                        "TEXCOORD_0" : 4
                    },
                    "indices" : 0
                }
            ]
        },
        {
            "name" : "grp_cat cat_l_ear",
            "primitives" : [
                {
                    "attributes" : {
                        "NORMAL" : 7,
                        "POSITION" : 6,
                        "TANGENT" : 8,
                        "TEXCOORD_0" : 9
                    },
                    "indices" : 5
                }
            ]
        }
    ],
    "nodes" : [
        {
            "mesh" : 1,
            "name" : "grp_cat cat_l_ear",
            "rotation" : [
                0.7071068286895752,
                0.0,
                -0.0,
                0.7071067094802856
            ]
        },
        {
            "mesh" : 0,
            "name" : "grp_cat cat_r_ear",
            "rotation" : [
                0.7071068286895752,
                0.0,
                -0.0,
                0.7071067094802856
            ]
        }
    ],
    "scene" : 0,
    "scenes" : [
        {
            "name" : "Scene",
            "nodes" : [
                1,
                0
            ]
        }
    ]
}
