{
    "accessors" : [
        {
            "bufferView" : 0,
            "componentType" : 5123,
            "count" : 1092,
            "max" : [
                222
            ],
            "min" : [
                0
            ],
            "type" : "SCALAR"
        },
        {
            "bufferView" : 1,
            "componentType" : 5126,
            "count" : 223,
            "max" : [
                0.5841460227966309,
                0.7552850246429443,
                -0.26075199246406555
            ],
            "min" : [
                -0.5841460227966309,
                -0.7552850246429443,
                -2.3104379177093506
            ],
            "type" : "VEC3"
        },
        {
            "bufferView" : 2,
            "componentType" : 5126,
            "count" : 223,
            "max" : [
                1.0,
                0.9602954387664795,
                1.0
            ],
            "min" : [
                -1.0,
                -0.9602954387664795,
                -1.0
            ],
            "type" : "VEC3"
        },
        {
            "bufferView" : 3,
            "componentType" : 5126,
            "count" : 223,
            "max" : [
                1.0,
                1.0,
                0.09951228648424149,
                1.0
            ],
            "min" : [
                -1.0,
                -1.0,
                -0.09967359900474548,
                1.0
            ],
            "type" : "VEC4"
        },
        {
            "bufferView" : 4,
            "componentType" : 5126,
            "count" : 223,
            "max" : [
                1.0,
                1.0
            ],
            "min" : [
                0.0,
                0.0
            ],
            "type" : "VEC2"
        }
    ],
    "asset" : {
        "generator" : "Khronos Blender glTF 2.0 exporter",
        "version" : "2.0"
    },
    "bufferViews" : [
        {
            "buffer" : 0,
            "byteLength" : 2184,
            "byteOffset" : 0,
            "target" : 34963
        },
        {
            "buffer" : 0,
            "byteLength" : 2676,
            "byteOffset" : 2184,
            "target" : 34962
        },
        {
            "buffer" : 0,
            "byteLength" : 2676,
            "byteOffset" : 4860,
            "target" : 34962
        },
        {
            "buffer" : 0,
            "byteLength" : 3568,
            "byteOffset" : 7536,
            "target" : 34962
        },
        {
            "buffer" : 0,
            "byteLength" : 1784,
            "byteOffset" : 11104,
            "target" : 34962
        }
    ],
    "buffers" : [
        {
            "byteLength" : 12888,
            "uri" : "manul-body.bin"
        }
    ],
    "images" : [
        {
            "name" : "lambert2SG-Standardtextur00010000",
            "uri" : "lambert2SG-Standardtextur00010000.jpg"
        },
        {
            "name" : "Moss-RockMoss-bump",
            "uri" : "Moss-RockMoss-bump.jpg"
        }
    ],
    "materials" : [
        {
            "name": "gold",
                        "pbrMetallicRoughness": {
                            "baseColorFactor": [ 1.000, 0.766, 0.336, 1.0 ],
                            "metallicFactor": 1.0,
                            "roughnessFactor": 0.5
                        }

        }
    ],
    "meshes" : [
        {
            "name" : "grp_catcat_body",
            "primitives" : [
                {
                    "attributes" : {
                        "NORMAL" : 2,
                        "POSITION" : 1,
                        "TANGENT" : 3,
                        "TEXCOORD_0" : 4
                    },
                    "indices" : 0,
                    "material" : 0
                }
            ]
        }
    ],
    "nodes" : [
        {
            "mesh" : 0,
            "name" : "grp_catcat_body",
            "rotation" : [
                0.7071068286895752,
                0.0,
                -0.0,
                0.7071067094802856
            ]
        }
    ],
    "samplers" : [
        {}
    ],
    "scene" : 0,
    "scenes" : [
        {
            "name" : "Scene",
            "nodes" : [
                0
            ]
        }
    ],
    "textures" : [
        {
            "sampler" : 0,
            "source" : 0
        },
        {
            "sampler" : 0,
            "source" : 1
        }
    ]
}
