{
    "accessors" : [
        {
            "bufferView" : 0,
            "componentType" : 5123,
            "count" : 2208,
            "max" : [
                459
            ],
            "min" : [
                0
            ],
            "type" : "SCALAR"
        },
        {
            "bufferView" : 1,
            "componentType" : 5126,
            "count" : 460,
            "max" : [
                0.6879017353057861,
                0.7706034183502197,
                0.10548758506774902
            ],
            "min" : [
                -0.323529988527298,
                -0.714745044708252,
                -0.5619570016860962
            ],
            "type" : "VEC3"
        },
        {
            "bufferView" : 2,
            "componentType" : 5126,
            "count" : 460,
            "max" : [
                0.9945066571235657,
                0.9548936486244202,
                0.9870601296424866
            ],
            "min" : [
                -0.9989013075828552,
                -0.9985961318016052,
                -0.9982909560203552
            ],
            "type" : "VEC3"
        },
        {
            "bufferView" : 3,
            "componentType" : 5126,
            "count" : 460,
            "max" : [
                1.0,
                1.0
            ],
            "min" : [
                0.0,
                0.0
            ],
            "type" : "VEC2"
        }
    ],
    "asset" : {
        "generator" : "Khronos Blender glTF 2.0 exporter",
        "version" : "2.0"
    },
    "bufferViews" : [
        {
            "buffer" : 0,
            "byteLength" : 4416,
            "byteOffset" : 0,
            "target" : 34963
        },
        {
            "buffer" : 0,
            "byteLength" : 5520,
            "byteOffset" : 4416,
            "target" : 34962
        },
        {
            "buffer" : 0,
            "byteLength" : 5520,
            "byteOffset" : 9936,
            "target" : 34962
        },
        {
            "buffer" : 0,
            "byteLength" : 3680,
            "byteOffset" : 15456,
            "target" : 34962
        }
    ],
    "buffers" : [
        {
            "byteLength" : 19136,
            "uri" : "manul-shoes-spikes.bin"
        }
    ],
    "meshes" : [
        {
            "name" : "cat_l_leg grp_cat.005",
            "primitives" : [
                {
                    "attributes" : {
                        "NORMAL" : 2,
                        "POSITION" : 1,
                        "TEXCOORD_0" : 3
                    },
                    "indices" : 0
                }
            ]
        }
    ],
    "nodes" : [
        {
            "mesh" : 0,
            "name" : "shoes-spikes",
            "rotation" : [
                0.6375636458396912,
                0.16273333132266998,
                0.47324442863464355,
                0.5857220888137817
            ],
            "scale" : [
                0.7872337698936462,
                0.7872337102890015,
                0.7872337698936462
            ],
            "translation" : [
                0.2793040871620178,
                0.010810691863298416,
                -0.0485626682639122
            ]
        }
    ],
    "scene" : 0,
    "scenes" : [
        {
            "name" : "Scene",
            "nodes" : [
                0
            ]
        }
    ]
}
