{
    "accessors" : [
        {
            "bufferView" : 0,
            "componentType" : 5123,
            "count" : 1092,
            "max" : [
                222
            ],
            "min" : [
                0
            ],
            "type" : "SCALAR"
        },
        {
            "bufferView" : 1,
            "componentType" : 5126,
            "count" : 223,
            "max" : [
                1.0438450574874878,
                1.18716299533844,
                -0.9589620232582092
            ],
            "min" : [
                -1.0438450574874878,
                -1.18716299533844,
                -2.681605100631714
            ],
            "type" : "VEC3"
        },
        {
            "bufferView" : 2,
            "componentType" : 5126,
            "count" : 223,
            "max" : [
                0.999969482421875,
                0.9678030014038086,
                1.0
            ],
            "min" : [
                -0.999969482421875,
                -0.9678030014038086,
                -1.0
            ],
            "type" : "VEC3"
        },
        {
            "bufferView" : 3,
            "componentType" : 5126,
            "count" : 223,
            "max" : [
                1.0,
                1.0,
                0.10467232018709183,
                1.0
            ],
            "min" : [
                -1.0,
                -1.0,
                -0.10467240959405899,
                1.0
            ],
            "type" : "VEC4"
        }
    ],
    "asset" : {
        "generator" : "Khronos Blender glTF 2.0 exporter",
        "version" : "2.0"
    },
    "bufferViews" : [
        {
            "buffer" : 0,
            "byteLength" : 2184,
            "byteOffset" : 0,
            "target" : 34963
        },
        {
            "buffer" : 0,
            "byteLength" : 2676,
            "byteOffset" : 2184,
            "target" : 34962
        },
        {
            "buffer" : 0,
            "byteLength" : 2676,
            "byteOffset" : 4860,
            "target" : 34962
        },
        {
            "buffer" : 0,
            "byteLength" : 3568,
            "byteOffset" : 7536,
            "target" : 34962
        }
    ],
    "buffers" : [
        {
            "byteLength" : 11104,
            "uri" : "manul5.bin"
        }
    ],
    "meshes" : [
        {
            "name" : "grp_cat cat_head",
            "primitives" : [
                {
                    "attributes" : {
                        "NORMAL" : 2,
                        "POSITION" : 1,
                        "TANGENT" : 3
                    },
                    "indices" : 0
                }
            ]
        }
    ],
    "nodes" : [
        {
            "mesh" : 0,
            "name" : "grp_cat cat_head",
            "rotation" : [
                0.7071068286895752,
                0.0,
                -0.0,
                0.7071067094802856
            ]
        }
    ],
    "scene" : 0,
    "scenes" : [
        {
            "name" : "Scene",
            "nodes" : [
                0
            ]
        }
    ]
}
