{
    "accessors" : [
        {
            "bufferView" : 0,
            "componentType" : 5123,
            "count" : 372,
            "max" : [
                191
            ],
            "min" : [
                0
            ],
            "type" : "SCALAR"
        },
        {
            "bufferView" : 1,
            "componentType" : 5126,
            "count" : 192,
            "max" : [
                1.0,
                1.0,
                1.0
            ],
            "min" : [
                -1.0,
                -1.0,
                -1.0
            ],
            "type" : "VEC3"
        },
        {
            "bufferView" : 2,
            "componentType" : 5126,
            "count" : 192,
            "max" : [
                0.9951847195625305,
                1.0,
                0.9951847195625305
            ],
            "min" : [
                -0.9951847791671753,
                -1.0,
                -0.9951847791671753
            ],
            "type" : "VEC3"
        },
        {
            "bufferView" : 3,
            "componentType" : 5123,
            "count" : 372,
            "max" : [
                191
            ],
            "min" : [
                0
            ],
            "type" : "SCALAR"
        },
        {
            "bufferView" : 4,
            "componentType" : 5126,
            "count" : 192,
            "max" : [
                1.0,
                1.0,
                1.0
            ],
            "min" : [
                -1.0,
                -1.0,
                -1.0
            ],
            "type" : "VEC3"
        },
        {
            "bufferView" : 5,
            "componentType" : 5126,
            "count" : 192,
            "max" : [
                0.9951847195625305,
                1.0,
                0.9951847195625305
            ],
            "min" : [
                -0.9951847791671753,
                -1.0,
                -0.9951847791671753
            ],
            "type" : "VEC3"
        }
    ],
    "asset" : {
        "generator" : "Khronos Blender glTF 2.0 exporter",
        "version" : "2.0"
    },
    "bufferViews" : [
        {
            "buffer" : 0,
            "byteLength" : 744,
            "byteOffset" : 0,
            "target" : 34963
        },
        {
            "buffer" : 0,
            "byteLength" : 2304,
            "byteOffset" : 744,
            "target" : 34962
        },
        {
            "buffer" : 0,
            "byteLength" : 2304,
            "byteOffset" : 3048,
            "target" : 34962
        },
        {
            "buffer" : 0,
            "byteLength" : 744,
            "byteOffset" : 5352,
            "target" : 34963
        },
        {
            "buffer" : 0,
            "byteLength" : 2304,
            "byteOffset" : 6096,
            "target" : 34962
        },
        {
            "buffer" : 0,
            "byteLength" : 2304,
            "byteOffset" : 8400,
            "target" : 34962
        }
    ],
    "buffers" : [
        {
            "byteLength" : 10704,
            "uri" : "manul-ear-bunny.bin"
        }
    ],
    "meshes" : [
        {
            "name" : "Cylinder.001",
            "primitives" : [
                {
                    "attributes" : {
                        "NORMAL" : 2,
                        "POSITION" : 1
                    },
                    "indices" : 0
                }
            ]
        },
        {
            "name" : "Cylinder",
            "primitives" : [
                {
                    "attributes" : {
                        "NORMAL" : 5,
                        "POSITION" : 4
                    },
                    "indices" : 3
                }
            ]
        }
    ],
    "nodes" : [
        {
            "mesh" : 1,
            "name" : "Cylinder",
            "rotation" : [
                0.9995425343513489,
                0.007963700219988823,
                -0.020421870052814484,
                0.020843667909502983
            ],
            "scale" : [
                0.25185859203338623,
                0.25185859203338623,
                0.25185859203338623
            ],
            "translation" : [
                0.12646378576755524,
                2.6114389896392822,
                0.628189206123352
            ]
        },
        {
            "mesh" : 0,
            "name" : "Cylinder.001",
            "rotation" : [
                0.0014254696434363723,
                -0.01849357597529888,
                0.0164306852966547,
                0.999692976474762
            ],
            "scale" : [
                0.25185859203338623,
                0.25185859203338623,
                0.25185859203338623
            ],
            "translation" : [
                0.09147734940052032,
                2.6193249225616455,
                -0.630870521068573
            ]
        }
    ],
    "scene" : 0,
    "scenes" : [
        {
            "name" : "Scene",
            "nodes" : [
                0,
                1
            ]
        }
    ]
}
