{
    "accessors" : [
        {
            "bufferView" : 0,
            "componentType" : 5123,
            "count" : 546,
            "max" : [
                130
            ],
            "min" : [
                0
            ],
            "type" : "SCALAR"
        },
        {
            "bufferView" : 1,
            "componentType" : 5126,
            "count" : 131,
            "max" : [
                0.268775999546051,
                0.5907739996910095,
                -0.0
            ],
            "min" : [
                -0.26877498626708984,
                0.0946580022573471,
                -0.5115500092506409
            ],
            "type" : "VEC3"
        },
        {
            "bufferView" : 2,
            "componentType" : 5126,
            "count" : 131,
            "max" : [
                0.9722281694412231,
                0.9922788143157959,
                0.9433881640434265
            ],
            "min" : [
                -0.9722281694412231,
                -0.9539170265197754,
                -0.21652881801128387
            ],
            "type" : "VEC3"
        },
        {
            "bufferView" : 3,
            "componentType" : 5126,
            "count" : 131,
            "max" : [
                -0.17789137363433838,
                0.2958270013332367,
                0.9611556529998779,
                1.0
            ],
            "min" : [
                -1.0,
                -0.2958270013332367,
                -0.9608101844787598,
                1.0
            ],
            "type" : "VEC4"
        }
    ],
    "asset" : {
        "generator" : "Khronos Blender glTF 2.0 exporter",
        "version" : "2.0"
    },
    "bufferViews" : [
        {
            "buffer" : 0,
            "byteLength" : 1092,
            "byteOffset" : 0,
            "target" : 34963
        },
        {
            "buffer" : 0,
            "byteLength" : 1572,
            "byteOffset" : 1092,
            "target" : 34962
        },
        {
            "buffer" : 0,
            "byteLength" : 1572,
            "byteOffset" : 2664,
            "target" : 34962
        },
        {
            "buffer" : 0,
            "byteLength" : 2096,
            "byteOffset" : 4236,
            "target" : 34962
        }
    ],
    "buffers" : [
        {
            "byteLength" : 6332,
            "uri" : "manul3.bin"
        }
    ],
    "meshes" : [
        {
            "name" : "grp_cat cat_r_leg",
            "primitives" : [
                {
                    "attributes" : {
                        "NORMAL" : 2,
                        "POSITION" : 1,
                        "TANGENT" : 3
                    },
                    "indices" : 0
                }
            ]
        }
    ],
    "nodes" : [
        {
            "mesh" : 0,
            "name" : "grp_cat cat_r_leg",
            "rotation" : [
                0.7071068286895752,
                0.0,
                -0.0,
                0.7071067094802856
            ]
        }
    ],
    "scene" : 0,
    "scenes" : [
        {
            "name" : "Scene",
            "nodes" : [
                0
            ]
        }
    ]
}
