{
    "accessors" : [
        {
            "bufferView" : 0,
            "componentType" : 5123,
            "count" : 546,
            "max" : [
                117
            ],
            "min" : [
                0
            ],
            "type" : "SCALAR"
        },
        {
            "bufferView" : 1,
            "componentType" : 5126,
            "count" : 118,
            "max" : [
                0.1570190042257309,
                1.0664030313491821,
                -0.6822829842567444
            ],
            "min" : [
                -0.1570190042257309,
                0.649321973323822,
                -1.1669189929962158
            ],
            "type" : "VEC3"
        },
        {
            "bufferView" : 2,
            "componentType" : 5126,
            "count" : 118,
            "max" : [
                0.999786376953125,
                0.939054548740387,
                0.99969482421875
            ],
            "min" : [
                -0.999786376953125,
                -0.0197149571031332,
                -0.999542236328125
            ],
            "type" : "VEC3"
        },
        {
            "bufferView" : 3,
            "componentType" : 5126,
            "count" : 118,
            "max" : [
                1.0,
                0.9998137950897217,
                0.03763827309012413,
                -1.0
            ],
            "min" : [
                -0.022472897544503212,
                -0.9998137950897217,
                -0.037598803639411926,
                -1.0
            ],
            "type" : "VEC4"
        },
        {
            "bufferView" : 4,
            "componentType" : 5126,
            "count" : 118,
            "max" : [
                0.9285719990730286,
                1.0
            ],
            "min" : [
                0.4285709857940674,
                0.0
            ],
            "type" : "VEC2"
        },
        {
            "bufferView" : 5,
            "componentType" : 5123,
            "count" : 1092,
            "max" : [
                222
            ],
            "min" : [
                0
            ],
            "type" : "SCALAR"
        },
        {
            "bufferView" : 6,
            "componentType" : 5126,
            "count" : 223,
            "max" : [
                0.5841460227966309,
                0.7552850246429443,
                -0.26075199246406555
            ],
            "min" : [
                -0.5841460227966309,
                -0.7552850246429443,
                -2.3104379177093506
            ],
            "type" : "VEC3"
        },
        {
            "bufferView" : 7,
            "componentType" : 5126,
            "count" : 223,
            "max" : [
                1.0,
                0.9602954387664795,
                1.0
            ],
            "min" : [
                -1.0,
                -0.9602954387664795,
                -1.0
            ],
            "type" : "VEC3"
        },
        {
            "bufferView" : 8,
            "componentType" : 5126,
            "count" : 223,
            "max" : [
                1.0,
                1.0,
                0.09951228648424149,
                1.0
            ],
            "min" : [
                -1.0,
                -1.0,
                -0.09967359900474548,
                1.0
            ],
            "type" : "VEC4"
        },
        {
            "bufferView" : 9,
            "componentType" : 5126,
            "count" : 223,
            "max" : [
                1.0,
                1.0
            ],
            "min" : [
                0.0,
                0.0
            ],
            "type" : "VEC2"
        },
        {
            "bufferView" : 10,
            "componentType" : 5123,
            "count" : 546,
            "max" : [
                117
            ],
            "min" : [
                0
            ],
            "type" : "SCALAR"
        },
        {
            "bufferView" : 11,
            "componentType" : 5126,
            "count" : 118,
            "max" : [
                0.1570190042257309,
                -0.649163007736206,
                -0.6822829842567444
            ],
            "min" : [
                -0.1570190042257309,
                -1.0666760206222534,
                -1.1669189929962158
            ],
            "type" : "VEC3"
        },
        {
            "bufferView" : 12,
            "componentType" : 5126,
            "count" : 118,
            "max" : [
                0.999786376953125,
                0.0197149571031332,
                0.99969482421875
            ],
            "min" : [
                -0.999786376953125,
                -0.938993513584137,
                -0.999542236328125
            ],
            "type" : "VEC3"
        },
        {
            "bufferView" : 13,
            "componentType" : 5126,
            "count" : 118,
            "max" : [
                1.0,
                0.9998142123222351,
                0.037702422589063644,
                1.0
            ],
            "min" : [
                -0.022449232637882233,
                -0.9998142123222351,
                -0.03769072890281677,
                1.0
            ],
            "type" : "VEC4"
        },
        {
            "bufferView" : 14,
            "componentType" : 5126,
            "count" : 118,
            "max" : [
                0.9285719990730286,
                1.0
            ],
            "min" : [
                0.4285709857940674,
                0.0
            ],
            "type" : "VEC2"
        },
        {
            "bufferView" : 15,
            "componentType" : 5123,
            "count" : 1092,
            "max" : [
                222
            ],
            "min" : [
                0
            ],
            "type" : "SCALAR"
        },
        {
            "bufferView" : 16,
            "componentType" : 5126,
            "count" : 223,
            "max" : [
                1.0438450574874878,
                1.18716299533844,
                -0.9589620232582092
            ],
            "min" : [
                -1.0438450574874878,
                -1.18716299533844,
                -2.681605100631714
            ],
            "type" : "VEC3"
        },
        {
            "bufferView" : 17,
            "componentType" : 5126,
            "count" : 223,
            "max" : [
                0.999969482421875,
                0.9678030014038086,
                1.0
            ],
            "min" : [
                -0.999969482421875,
                -0.9678030014038086,
                -1.0
            ],
            "type" : "VEC3"
        },
        {
            "bufferView" : 18,
            "componentType" : 5126,
            "count" : 223,
            "max" : [
                1.0,
                1.0,
                0.10467232018709183,
                1.0
            ],
            "min" : [
                -1.0,
                -1.0,
                -0.10467240959405899,
                1.0
            ],
            "type" : "VEC4"
        },
        {
            "bufferView" : 19,
            "componentType" : 5126,
            "count" : 223,
            "max" : [
                1.0,
                1.0
            ],
            "min" : [
                0.0,
                0.0
            ],
            "type" : "VEC2"
        }
    ],
    "asset" : {
        "generator" : "Khronos Blender glTF 2.0 exporter",
        "version" : "2.0"
    },
    "bufferViews" : [
        {
            "buffer" : 0,
            "byteLength" : 1092,
            "byteOffset" : 0,
            "target" : 34963
        },
        {
            "buffer" : 0,
            "byteLength" : 1416,
            "byteOffset" : 1092,
            "target" : 34962
        },
        {
            "buffer" : 0,
            "byteLength" : 1416,
            "byteOffset" : 2508,
            "target" : 34962
        },
        {
            "buffer" : 0,
            "byteLength" : 1888,
            "byteOffset" : 3924,
            "target" : 34962
        },
        {
            "buffer" : 0,
            "byteLength" : 944,
            "byteOffset" : 5812,
            "target" : 34962
        },
        {
            "buffer" : 0,
            "byteLength" : 2184,
            "byteOffset" : 6756,
            "target" : 34963
        },
        {
            "buffer" : 0,
            "byteLength" : 2676,
            "byteOffset" : 8940,
            "target" : 34962
        },
        {
            "buffer" : 0,
            "byteLength" : 2676,
            "byteOffset" : 11616,
            "target" : 34962
        },
        {
            "buffer" : 0,
            "byteLength" : 3568,
            "byteOffset" : 14292,
            "target" : 34962
        },
        {
            "buffer" : 0,
            "byteLength" : 1784,
            "byteOffset" : 17860,
            "target" : 34962
        },
        {
            "buffer" : 0,
            "byteLength" : 1092,
            "byteOffset" : 19644,
            "target" : 34963
        },
        {
            "buffer" : 0,
            "byteLength" : 1416,
            "byteOffset" : 20736,
            "target" : 34962
        },
        {
            "buffer" : 0,
            "byteLength" : 1416,
            "byteOffset" : 22152,
            "target" : 34962
        },
        {
            "buffer" : 0,
            "byteLength" : 1888,
            "byteOffset" : 23568,
            "target" : 34962
        },
        {
            "buffer" : 0,
            "byteLength" : 944,
            "byteOffset" : 25456,
            "target" : 34962
        },
        {
            "buffer" : 0,
            "byteLength" : 2184,
            "byteOffset" : 26400,
            "target" : 34963
        },
        {
            "buffer" : 0,
            "byteLength" : 2676,
            "byteOffset" : 28584,
            "target" : 34962
        },
        {
            "buffer" : 0,
            "byteLength" : 2676,
            "byteOffset" : 31260,
            "target" : 34962
        },
        {
            "buffer" : 0,
            "byteLength" : 3568,
            "byteOffset" : 33936,
            "target" : 34962
        },
        {
            "buffer" : 0,
            "byteLength" : 1784,
            "byteOffset" : 37504,
            "target" : 34962
        }
    ],
    "buffers" : [
        {
            "byteLength" : 39288,
            "uri" : "manul-body-standard.bin"
        }
    ],
    "meshes" : [
        {
            "name" : "grp_cat cat_r_arm",
            "primitives" : [
                {
                    "attributes" : {
                        "NORMAL" : 2,
                        "POSITION" : 1,
                        "TANGENT" : 3,
                        "TEXCOORD_0" : 4
                    },
                    "indices" : 0
                }
            ]
        },
        {
            "name" : "grp_catcat_body",
            "primitives" : [
                {
                    "attributes" : {
                        "NORMAL" : 7,
                        "POSITION" : 6,
                        "TANGENT" : 8,
                        "TEXCOORD_0" : 9
                    },
                    "indices" : 5
                }
            ]
        },
        {
            "name" : "grp_cat cat_l_arm",
            "primitives" : [
                {
                    "attributes" : {
                        "NORMAL" : 12,
                        "POSITION" : 11,
                        "TANGENT" : 13,
                        "TEXCOORD_0" : 14
                    },
                    "indices" : 10
                }
            ]
        },
        {
            "name" : "grp_cat cat_head",
            "primitives" : [
                {
                    "attributes" : {
                        "NORMAL" : 17,
                        "POSITION" : 16,
                        "TANGENT" : 18,
                        "TEXCOORD_0" : 19
                    },
                    "indices" : 15
                }
            ]
        }
    ],
    "nodes" : [
        {
            "mesh" : 3,
            "name" : "grp_cat cat_head",
            "rotation" : [
                0.7071068286895752,
                0.0,
                -0.0,
                0.7071067094802856
            ]
        },
        {
            "mesh" : 2,
            "name" : "grp_cat cat_l_arm",
            "rotation" : [
                0.7071068286895752,
                0.0,
                -0.0,
                0.7071067094802856
            ]
        },
        {
            "mesh" : 0,
            "name" : "grp_cat cat_r_arm",
            "rotation" : [
                0.7071068286895752,
                0.0,
                -0.0,
                0.7071067094802856
            ]
        },
        {
            "mesh" : 1,
            "name" : "grp_catcat_body",
            "rotation" : [
                0.7071068286895752,
                0.0,
                -0.0,
                0.7071067094802856
            ]
        }
    ],
    "scene" : 0,
    "scenes" : [
        {
            "name" : "Scene",
            "nodes" : [
                1,
                2,
                3,
                0
            ]
        }
    ]
}
