{
    "accessors" : [
        {
            "bufferView" : 0,
            "componentType" : 5123,
            "count" : 186,
            "max" : [
                127
            ],
            "min" : [
                0
            ],
            "type" : "SCALAR"
        },
        {
            "bufferView" : 1,
            "componentType" : 5126,
            "count" : 128,
            "max" : [
                0.20000000298023224,
                0.30000001192092896,
                0.20000000298023224
            ],
            "min" : [
                -0.20000000298023224,
                -0.30000001192092896,
                -0.20000000298023224
            ],
            "type" : "VEC3"
        },
        {
            "bufferView" : 2,
            "componentType" : 5126,
            "count" : 128,
            "max" : [
                0.9445690512657166,
                0.3148563802242279,
                0.9445689916610718
            ],
            "min" : [
                -0.9445690512657166,
                -1.0,
                -0.9445690512657166
            ],
            "type" : "VEC3"
        }
    ],
    "asset" : {
        "generator" : "Khronos Blender glTF 2.0 exporter",
        "version" : "2.0"
    },
    "bufferViews" : [
        {
            "buffer" : 0,
            "byteLength" : 372,
            "byteOffset" : 0,
            "target" : 34963
        },
        {
            "buffer" : 0,
            "byteLength" : 1536,
            "byteOffset" : 372,
            "target" : 34962
        },
        {
            "buffer" : 0,
            "byteLength" : 1536,
            "byteOffset" : 1908,
            "target" : 34962
        }
    ],
    "buffers" : [
        {
            "byteLength" : 3444,
            "uri" : "manul-ear-test.bin"
        }
    ],
    "meshes" : [
        {
            "name" : "Cone",
            "primitives" : [
                {
                    "attributes" : {
                        "NORMAL" : 2,
                        "POSITION" : 1
                    },
                    "indices" : 0
                }
            ]
        }
    ],
    "nodes" : [
        {
            "mesh" : 0,
            "name" : "Cone",
            "translation" : [
                0.3191528022289276,
                2.7562761306762695,
                -0.014012790285050869
            ]
        }
    ],
    "scene" : 0,
    "scenes" : [
        {
            "name" : "Scene",
            "nodes" : [
                0
            ]
        }
    ]
}
